<svg id="wave" style="transform:rotate(180deg); transition: 0.3s" viewBox="0 0 1440 100" version="1.1" xmlns="http://www.w3.org/2000/svg"><defs><linearGradient id="sw-gradient-0" x1="0" x2="0" y1="1" y2="0"><stop stop-color="rgba(255, 238, 197, 1)" offset="0%"></stop><stop stop-color="rgba(255, 238, 197, 1)" offset="100%"></stop></linearGradient></defs><path style="transform:translate(0, 0px); opacity:1" fill="url(#sw-gradient-0)" d="M0,20L15,18.3C30,17,60,13,90,13.3C120,13,150,17,180,20C210,23,240,27,270,25C300,23,330,17,360,18.3C390,20,420,30,450,40C480,50,510,60,540,53.3C570,47,600,23,630,11.7C660,0,690,0,720,8.3C750,17,780,33,810,33.3C840,33,870,17,900,23.3C930,30,960,60,990,63.3C1020,67,1050,43,1080,28.3C1110,13,1140,7,1170,6.7C1200,7,1230,13,1260,25C1290,37,1320,53,1350,60C1380,67,1410,63,1440,58.3C1470,53,1500,47,1530,50C1560,53,1590,67,1620,75C1650,83,1680,87,1710,73.3C1740,60,1770,30,1800,23.3C1830,17,1860,33,1890,40C1920,47,1950,43,1980,46.7C2010,50,2040,60,2070,53.3C2100,47,2130,23,2145,11.7L2160,0L2160,100L2145,100C2130,100,2100,100,2070,100C2040,100,2010,100,1980,100C1950,100,1920,100,1890,100C1860,100,1830,100,1800,100C1770,100,1740,100,1710,100C1680,100,1650,100,1620,100C1590,100,1560,100,1530,100C1500,100,1470,100,1440,100C1410,100,1380,100,1350,100C1320,100,1290,100,1260,100C1230,100,1200,100,1170,100C1140,100,1110,100,1080,100C1050,100,1020,100,990,100C960,100,930,100,900,100C870,100,840,100,810,100C780,100,750,100,720,100C690,100,660,100,630,100C600,100,570,100,540,100C510,100,480,100,450,100C420,100,390,100,360,100C330,100,300,100,270,100C240,100,210,100,180,100C150,100,120,100,90,100C60,100,30,100,15,100L0,100Z"></path></svg>